<?xml version="1.0" encoding="UTF-8" standalone="no"?>
<svg
   xmlns:dc="http://purl.org/dc/elements/1.1/"
   xmlns:cc="http://creativecommons.org/ns#"
   xmlns:rdf="http://www.w3.org/1999/02/22-rdf-syntax-ns#"
   xmlns:svg="http://www.w3.org/2000/svg"
   xmlns="http://www.w3.org/2000/svg"
   xmlns:sodipodi="http://sodipodi.sourceforge.net/DTD/sodipodi-0.dtd"
   xmlns:inkscape="http://www.inkscape.org/namespaces/inkscape"
   sodipodi:docname="Elevator-planer.svg"
   inkscape:version="1.0 (4035a4fb49, 2020-05-01)"
   id="svg8"
   version="1.1"
   viewBox="0 0 7.0841279 7.0841279"
   height="7.0841279mm"
   width="7.0841279mm">
  <defs
     id="defs2" />
  <sodipodi:namedview
     inkscape:window-maximized="1"
     inkscape:window-y="-8"
     inkscape:window-x="1912"
     inkscape:window-height="837"
     inkscape:window-width="1600"
     fit-margin-bottom="0"
     fit-margin-right="0"
     fit-margin-left="0"
     fit-margin-top="0"
     showgrid="false"
     inkscape:document-rotation="0"
     inkscape:current-layer="layer1"
     inkscape:document-units="mm"
     inkscape:cy="11.672975"
     inkscape:cx="-11.474854"
     inkscape:zoom="13.118507"
     inkscape:pageshadow="2"
     inkscape:pageopacity="0.0"
     borderopacity="1.0"
     bordercolor="#666666"
     pagecolor="#ffffff"
     id="base" />
  <metadata
     id="metadata5">
    <rdf:RDF>
      <cc:Work
         rdf:about="">
        <dc:format>image/svg+xml</dc:format>
        <dc:type
           rdf:resource="http://purl.org/dc/dcmitype/StillImage" />
        <dc:title />
      </cc:Work>
    </rdf:RDF>
  </metadata>
  <g
     transform="translate(-21.928738,-22.684689)"
     id="layer1"
     inkscape:groupmode="layer"
     inkscape:label="Lag 1">
    <circle
       r="3.5420635"
       cy="26.226753"
       cx="25.470802"
       id="path833"
       style="fill:#f36200;fill-opacity:1;stroke:#f1f6dd;stroke-width:0;stroke-linecap:round;stroke-linejoin:round" />
    <text
       id="text839"
       y="28.993521"
       x="23.063847"
       style="font-style:normal;font-variant:normal;font-weight:normal;font-stretch:normal;font-size:7.99644px;line-height:125%;font-family:Arial;-inkscape-font-specification:Arial;letter-spacing:0px;word-spacing:0px;fill:#ffeeaa;stroke:#ffeeaa;stroke-width:0.113335;stroke-linecap:butt;stroke-linejoin:miter;stroke-miterlimit:4;stroke-dasharray:none;stroke-opacity:1"
       xml:space="preserve"><tspan
         style="font-style:normal;font-variant:normal;font-weight:normal;font-stretch:normal;font-family:Arial;-inkscape-font-specification:Arial;fill:#ffeeaa;stroke:#ffeeaa;stroke-width:0.113335;stroke-miterlimit:4;stroke-dasharray:none;stroke-opacity:1"
         y="28.993521"
         x="23.063847"
         id="tspan837"
         sodipodi:role="line" /></text>
    <path
       style="fill:#005880;stroke-width:0.00889453;fill-opacity:1"
       d="m 23.605336,25.592021 h 3.771282 c 0.0587,0 0.106737,0.04803 0.106737,0.106738 v 2.312579 c 0,0.235705 -0.191233,0.426938 -0.426938,0.426938 h -3.130875 c -0.235705,0 -0.426938,-0.191233 -0.426938,-0.426938 v -2.312583 c 0,-0.0587 0.04804,-0.106738 0.106738,-0.106738 z m 3.878017,-0.39136 v -0.320202 c 0,-0.235705 -0.191233,-0.426939 -0.426938,-0.426939 h -0.426938 v -0.462515 c 0,-0.0587 -0.04803,-0.106737 -0.106738,-0.106737 h -0.35578 c -0.0587,0 -0.106738,0.04803 -0.106738,0.106737 V 24.45352 H 24.92172 v -0.462515 c 0,-0.0587 -0.04803,-0.106737 -0.106737,-0.106737 h -0.355782 c -0.0587,0 -0.106738,0.04803 -0.106738,0.106737 v 0.462515 h -0.426937 c -0.235705,0 -0.426938,0.191234 -0.426938,0.426939 v 0.320202 c 0,0.05871 0.04804,0.106738 0.106738,0.106738 h 3.771281 c 0.0587,0 0.106738,-0.04804 0.106738,-0.106738 z"
       id="path836" />
  </g>
</svg>
