<?xml version="1.0" encoding="UTF-8" standalone="no"?>
<svg
   sodipodi:docname="Elevator.svg"
   inkscape:version="1.1 (c68e22c387, 2021-05-23)"
   id="svg8"
   version="1.1"
   viewBox="0 0 7.0841279 7.0841279"
   height="7.0841279mm"
   width="7.0841279mm"
   xmlns:inkscape="http://www.inkscape.org/namespaces/inkscape"
   xmlns:sodipodi="http://sodipodi.sourceforge.net/DTD/sodipodi-0.dtd"
   xmlns="http://www.w3.org/2000/svg"
   xmlns:svg="http://www.w3.org/2000/svg"
   xmlns:rdf="http://www.w3.org/1999/02/22-rdf-syntax-ns#"
   xmlns:cc="http://creativecommons.org/ns#"
   xmlns:dc="http://purl.org/dc/elements/1.1/">
  <defs
     id="defs2" />
  <sodipodi:namedview
     inkscape:window-maximized="1"
     inkscape:window-y="-8"
     inkscape:window-x="-8"
     inkscape:window-height="1017"
     inkscape:window-width="1920"
     fit-margin-bottom="0"
     fit-margin-right="0"
     fit-margin-left="0"
     fit-margin-top="0"
     showgrid="false"
     inkscape:document-rotation="0"
     inkscape:current-layer="layer1"
     inkscape:document-units="mm"
     inkscape:cy="11.739141"
     inkscape:cx="-11.891597"
     inkscape:zoom="3.2796268"
     inkscape:pageshadow="2"
     inkscape:pageopacity="0.0"
     borderopacity="1.0"
     bordercolor="#666666"
     pagecolor="#ffffff"
     id="base"
     inkscape:pagecheckerboard="0" />
  <metadata
     id="metadata5">
    <rdf:RDF>
      <cc:Work
         rdf:about="">
        <dc:format>image/svg+xml</dc:format>
        <dc:type
           rdf:resource="http://purl.org/dc/dcmitype/StillImage" />
      </cc:Work>
    </rdf:RDF>
  </metadata>
  <g
     transform="translate(-21.928738,-22.684689)"
     id="layer1"
     inkscape:groupmode="layer"
     inkscape:label="Lag 1">
    <circle
       r="3.5420635"
       cy="26.226753"
       cx="25.470802"
       id="path833"
       style="fill:#f36200;fill-opacity:1;stroke:#f1f6dd;stroke-width:0;stroke-linecap:round;stroke-linejoin:round" />
    <text
       id="text839"
       y="28.993521"
       x="23.063847"
       style="font-style:normal;font-variant:normal;font-weight:normal;font-stretch:normal;font-size:7.99644px;line-height:125%;font-family:Arial;-inkscape-font-specification:Arial;letter-spacing:0px;word-spacing:0px;fill:#ffeeaa;stroke:#ffeeaa;stroke-width:0.113335;stroke-linecap:butt;stroke-linejoin:miter;stroke-miterlimit:4;stroke-dasharray:none;stroke-opacity:1"
       xml:space="preserve"><tspan
         style="font-style:normal;font-variant:normal;font-weight:normal;font-stretch:normal;font-family:Arial;-inkscape-font-specification:Arial;fill:#ffeeaa;stroke:#ffeeaa;stroke-width:0.113335;stroke-miterlimit:4;stroke-dasharray:none;stroke-opacity:1"
         y="28.993521"
         x="23.063847"
         id="tspan837"
         sodipodi:role="line" /></text>
    <path
       style="fill:#ffffff;fill-opacity:1;stroke-width:0.00826426"
       d="m 23.718778,25.697835 h 3.504047 c 0.05454,0 0.09917,0.04463 0.09917,0.09918 v 2.148708 c 0,0.219003 -0.177682,0.396685 -0.396685,0.396685 h -2.909019 c -0.219003,0 -0.396685,-0.177682 -0.396685,-0.396685 v -2.148712 c 0,-0.05454 0.04464,-0.09917 0.09917,-0.09917 z m 3.603219,-0.363628 v -0.297512 c 0,-0.219003 -0.177683,-0.396686 -0.396685,-0.396686 h -0.396685 v -0.429741 c 0,-0.05454 -0.04463,-0.09917 -0.09917,-0.09917 h -0.330569 c -0.05454,0 -0.09917,0.04463 -0.09917,0.09917 v 0.429741 h -1.057826 v -0.429741 c 0,-0.05454 -0.04463,-0.09917 -0.09917,-0.09917 H 24.51215 c -0.05454,0 -0.09917,0.04463 -0.09917,0.09917 v 0.429741 h -0.396684 c -0.219003,0 -0.396685,0.177683 -0.396685,0.396686 v 0.297512 c 0,0.05455 0.04464,0.09917 0.09917,0.09917 h 3.504047 c 0.05454,0 0.09917,-0.04464 0.09917,-0.09917 z"
       id="path836" />
  </g>
</svg>
