<?xml version="1.0" encoding="UTF-8" standalone="no"?>
<svg
   xmlns:dc="http://purl.org/dc/elements/1.1/"
   xmlns:cc="http://creativecommons.org/ns#"
   xmlns:rdf="http://www.w3.org/1999/02/22-rdf-syntax-ns#"
   xmlns:svg="http://www.w3.org/2000/svg"
   xmlns="http://www.w3.org/2000/svg"
   xmlns:sodipodi="http://sodipodi.sourceforge.net/DTD/sodipodi-0.dtd"
   xmlns:inkscape="http://www.inkscape.org/namespaces/inkscape"
   sodipodi:docname="Forholdsordrer.svg"
   inkscape:version="1.0 (4035a4fb49, 2020-05-01)"
   id="svg8"
   version="1.1"
   viewBox="0 0 7.0841279 7.0841279"
   height="7.0841279mm"
   width="7.0841279mm">
  <defs
     id="defs2" />
  <sodipodi:namedview
     inkscape:window-maximized="1"
     inkscape:window-y="-8"
     inkscape:window-x="-8"
     inkscape:window-height="1017"
     inkscape:window-width="1920"
     fit-margin-bottom="0"
     fit-margin-right="0"
     fit-margin-left="0"
     fit-margin-top="0"
     showgrid="false"
     inkscape:document-rotation="0"
     inkscape:current-layer="layer1"
     inkscape:document-units="mm"
     inkscape:cy="23.558366"
     inkscape:cx="119.93663"
     inkscape:zoom="1.42"
     inkscape:pageshadow="2"
     inkscape:pageopacity="0.0"
     borderopacity="1.0"
     bordercolor="#666666"
     pagecolor="#ffffff"
     id="base" />
  <metadata
     id="metadata5">
    <rdf:RDF>
      <cc:Work
         rdf:about="">
        <dc:format>image/svg+xml</dc:format>
        <dc:type
           rdf:resource="http://purl.org/dc/dcmitype/StillImage" />
        <dc:title></dc:title>
      </cc:Work>
    </rdf:RDF>
  </metadata>
  <g
     transform="translate(-21.928738,-22.684689)"
     id="layer1"
     inkscape:groupmode="layer"
     inkscape:label="Lag 1">
    <circle
       r="3.5420635"
       cy="26.226753"
       cx="25.470802"
       id="path833"
       style="fill:#a02c89;fill-opacity:1;stroke:#f1f6dd;stroke-width:0;stroke-linecap:round;stroke-linejoin:round" />
    <text
       id="text839"
       y="28.993521"
       x="23.063847"
       style="font-style:normal;font-variant:normal;font-weight:normal;font-stretch:normal;font-size:7.99644px;line-height:125%;font-family:Arial;-inkscape-font-specification:Arial;letter-spacing:0px;word-spacing:0px;fill:#ffeeaa;stroke:#ffeeaa;stroke-width:0.113335;stroke-linecap:butt;stroke-linejoin:miter;stroke-miterlimit:4;stroke-dasharray:none;stroke-opacity:1"
       xml:space="preserve"><tspan
         style="font-style:normal;font-variant:normal;font-weight:normal;font-stretch:normal;font-family:Arial;-inkscape-font-specification:Arial;fill:#ffeeaa;stroke:#ffeeaa;stroke-width:0.113335;stroke-miterlimit:4;stroke-dasharray:none;stroke-opacity:1"
         y="28.993521"
         x="23.063847"
         id="tspan837"
         sodipodi:role="line" /></text>
    <g
       style="fill:#ffffff;fill-opacity:1"
       transform="matrix(0.00101839,0,0,-0.00101839,22.666652,28.908048)"
       fill="#000000"
       stroke="none"
       id="g861">
      <path
         style="fill:#ffffff;fill-opacity:1"
         d="m 2370,4995 c -270,-58 -473,-218 -596,-470 -82,-170 -98,-244 -99,-460 0,-158 3,-191 24,-269 51,-194 131,-342 258,-476 126,-133 262,-216 428,-261 115,-31 299,-32 408,-1 335,95 578,382 637,755 20,120 8,339 -24,455 -98,355 -361,629 -681,712 -104,27 -268,34 -355,15 z"
         id="path855" />
      <path
         style="fill:#ffffff;fill-opacity:1"
         d="M 1650,2811 C 1508,2772 1238,2647 1143,2576 934,2419 842,2154 756,1460 726,1220 694,910 684,758 l -7,-108 h 1182 1181 v 493 c 0,312 4,515 11,553 23,124 122,250 246,311 l 58,28 548,3 c 301,1 547,7 547,11 0,20 -52,187 -76,243 -89,211 -210,313 -538,453 -153,64 -246,89 -321,83 -78,-7 -116,-27 -248,-132 -233,-185 -402,-255 -615,-256 -216,0 -383,72 -635,273 -149,119 -220,138 -367,98 z"
         id="path857" />
      <path
         style="fill:#ffffff;fill-opacity:1"
         d="M 3440,950 V 260 h 695 695 v 690 690 h -695 -695 z"
         id="path859" />
    </g>
  </g>
</svg>
