<?xml version="1.0" encoding="UTF-8" standalone="no"?>
<svg
   xmlns:dc="http://purl.org/dc/elements/1.1/"
   xmlns:cc="http://creativecommons.org/ns#"
   xmlns:rdf="http://www.w3.org/1999/02/22-rdf-syntax-ns#"
   xmlns:svg="http://www.w3.org/2000/svg"
   xmlns="http://www.w3.org/2000/svg"
   xmlns:sodipodi="http://sodipodi.sourceforge.net/DTD/sodipodi-0.dtd"
   xmlns:inkscape="http://www.inkscape.org/namespaces/inkscape"
   sodipodi:docname="kontaktliste.svg"
   inkscape:version="1.0 (4035a4fb49, 2020-05-01)"
   id="svg8"
   version="1.1"
   viewBox="0 0 10.120182 10.120182"
   height="10.120182mm"
   width="10.120182mm">
  <defs
     id="defs2" />
  <sodipodi:namedview
     inkscape:window-maximized="1"
     inkscape:window-y="-8"
     inkscape:window-x="1912"
     inkscape:window-height="837"
     inkscape:window-width="1600"
     fit-margin-bottom="0"
     fit-margin-right="0"
     fit-margin-left="0"
     fit-margin-top="0"
     showgrid="false"
     inkscape:document-rotation="0"
     inkscape:current-layer="layer1"
     inkscape:document-units="mm"
     inkscape:cy="1.1267775"
     inkscape:cx="125.67406"
     inkscape:zoom="1.42"
     inkscape:pageshadow="2"
     inkscape:pageopacity="0.0"
     borderopacity="1.0"
     bordercolor="#666666"
     pagecolor="#ffffff"
     id="base" />
  <metadata
     id="metadata5">
    <rdf:RDF>
      <cc:Work
         rdf:about="">
        <dc:format>image/svg+xml</dc:format>
        <dc:type
           rdf:resource="http://purl.org/dc/dcmitype/StillImage" />
        <dc:title></dc:title>
      </cc:Work>
    </rdf:RDF>
  </metadata>
  <g
     transform="translate(-20.410711,-21.166662)"
     id="layer1"
     inkscape:groupmode="layer"
     inkscape:label="Lag 1">
    <circle
       r="5.0600905"
       cy="26.226753"
       cx="25.470802"
       id="path833"
       style="fill:#37c837;fill-opacity:1;stroke:#f1f6dd;stroke-width:0;stroke-linecap:round;stroke-linejoin:round" />
    <text
       id="text839"
       y="28.993521"
       x="23.063847"
       style="font-style:normal;font-variant:normal;font-weight:normal;font-stretch:normal;font-size:7.99644px;line-height:125%;font-family:Arial;-inkscape-font-specification:Arial;letter-spacing:0px;word-spacing:0px;fill:#ffeeaa;stroke:#ffeeaa;stroke-width:0.113335;stroke-linecap:butt;stroke-linejoin:miter;stroke-miterlimit:4;stroke-dasharray:none;stroke-opacity:1"
       xml:space="preserve"><tspan
         style="font-style:normal;font-variant:normal;font-weight:normal;font-stretch:normal;font-family:Arial;-inkscape-font-specification:Arial;fill:#ffeeaa;stroke:#ffeeaa;stroke-width:0.113335;stroke-miterlimit:4;stroke-dasharray:none;stroke-opacity:1"
         y="28.993521"
         x="23.063847"
         id="tspan837"
         sodipodi:role="line" /></text>
    <path
       style="fill:#ffffff;fill-opacity:1;stroke:none;stroke-width:0.00178509"
       id="path841"
       d="m 24.614852,22.713093 c -0.146377,0.04284 -0.569443,0.265978 -0.70154,0.371299 -0.324885,0.258837 -0.546237,0.658697 -0.649772,1.172802 -0.04284,0.221352 -0.04284,0.785439 0,1.021071 0.158873,0.849702 0.440917,1.622645 0.91575,2.506264 0.176724,0.330241 0.426637,0.740811 0.574799,0.949667 0.280258,0.389149 0.687259,0.72653 1.069268,0.885404 0.262408,0.108891 0.376653,0.130312 0.701539,0.132096 0.271334,0 0.307036,-0.0054 0.455198,-0.04998 0.162443,-0.04998 0.462338,-0.180292 0.583724,-0.255265 0.08747,-0.05355 0.146377,-0.166014 0.146377,-0.282045 0,-0.07676 -0.04284,-0.18565 -0.30168,-0.776513 -0.249913,-0.571228 -0.312391,-0.697971 -0.369513,-0.753308 -0.133881,-0.130312 -0.244558,-0.117814 -0.665838,0.07497 -0.344522,0.158874 -0.424851,0.17851 -0.556948,0.141022 -0.176723,-0.04819 -0.176723,-0.04998 -0.726531,-1.304899 -0.321315,-0.735456 -0.499824,-1.165662 -0.50518,-1.219215 -0.01428,-0.11246 0.02321,-0.228491 0.10175,-0.317745 0.05712,-0.06427 0.119602,-0.09997 0.39629,-0.224922 0.178509,-0.08212 0.353447,-0.169583 0.387364,-0.194574 0.08033,-0.06069 0.133882,-0.182079 0.123171,-0.287399 -0.01071,-0.107106 -0.585508,-1.41736 -0.653342,-1.488764 -0.08925,-0.09461 -0.21064,-0.132096 -0.324886,-0.09997 z" />
  </g>
</svg>
