<?xml version="1.0" encoding="UTF-8" standalone="no"?>
<svg
   xmlns:dc="http://purl.org/dc/elements/1.1/"
   xmlns:cc="http://creativecommons.org/ns#"
   xmlns:rdf="http://www.w3.org/1999/02/22-rdf-syntax-ns#"
   xmlns:svg="http://www.w3.org/2000/svg"
   xmlns="http://www.w3.org/2000/svg"
   xmlns:sodipodi="http://sodipodi.sourceforge.net/DTD/sodipodi-0.dtd"
   xmlns:inkscape="http://www.inkscape.org/namespaces/inkscape"
   sodipodi:docname="Kontaktlister.svg"
   inkscape:version="1.0 (4035a4fb49, 2020-05-01)"
   id="svg8"
   version="1.1"
   viewBox="0 0 7.0841279 7.0841279"
   height="7.0841279mm"
   width="7.0841279mm">
  <defs
     id="defs2" />
  <sodipodi:namedview
     inkscape:window-maximized="1"
     inkscape:window-y="-8"
     inkscape:window-x="1912"
     inkscape:window-height="837"
     inkscape:window-width="1600"
     fit-margin-bottom="0"
     fit-margin-right="0"
     fit-margin-left="0"
     fit-margin-top="0"
     showgrid="false"
     inkscape:document-rotation="0"
     inkscape:current-layer="layer1"
     inkscape:document-units="mm"
     inkscape:cy="-16.582477"
     inkscape:cx="107.96481"
     inkscape:zoom="1.42"
     inkscape:pageshadow="2"
     inkscape:pageopacity="0.0"
     borderopacity="1.0"
     bordercolor="#666666"
     pagecolor="#ffffff"
     id="base" />
  <metadata
     id="metadata5">
    <rdf:RDF>
      <cc:Work
         rdf:about="">
        <dc:format>image/svg+xml</dc:format>
        <dc:type
           rdf:resource="http://purl.org/dc/dcmitype/StillImage" />
        <dc:title />
      </cc:Work>
    </rdf:RDF>
  </metadata>
  <g
     transform="translate(-21.928738,-22.684689)"
     id="layer1"
     inkscape:groupmode="layer"
     inkscape:label="Lag 1">
    <circle
       r="3.5420635"
       cy="26.226753"
       cx="25.470802"
       id="path833"
       style="fill:#38bd38;fill-opacity:1;stroke:#f1f6dd;stroke-width:0;stroke-linecap:round;stroke-linejoin:round" />
    <text
       id="text839"
       y="28.993521"
       x="23.063847"
       style="font-style:normal;font-variant:normal;font-weight:normal;font-stretch:normal;font-size:7.99644px;line-height:125%;font-family:Arial;-inkscape-font-specification:Arial;letter-spacing:0px;word-spacing:0px;fill:#ffeeaa;stroke:#ffeeaa;stroke-width:0.113335;stroke-linecap:butt;stroke-linejoin:miter;stroke-miterlimit:4;stroke-dasharray:none;stroke-opacity:1"
       xml:space="preserve"><tspan
         style="font-style:normal;font-variant:normal;font-weight:normal;font-stretch:normal;font-family:Arial;-inkscape-font-specification:Arial;fill:#ffeeaa;stroke:#ffeeaa;stroke-width:0.113335;stroke-miterlimit:4;stroke-dasharray:none;stroke-opacity:1"
         y="28.993521"
         x="23.063847"
         id="tspan837"
         sodipodi:role="line" /></text>
    <path
       style="fill:#ffffff;fill-opacity:1;stroke:none;stroke-width:0.00124956"
       id="path841"
       d="m 27.301265,24.478081 c -0.0772,-0.07374 -0.360546,-0.252113 -0.470627,-0.295331 -0.270621,-0.106358 -0.590497,-0.100595 -0.938394,0.01658 -0.149182,0.0515 -0.491142,0.248931 -0.618991,0.357374 -0.459499,0.393708 -0.829355,0.835218 -1.198829,1.432337 -0.138345,0.222717 -0.29977,0.517919 -0.374526,0.680836 -0.137818,0.3061 -0.199895,0.670914 -0.162504,0.958102 0.02583,0.197185 0.05283,0.273943 0.165458,0.47152 0.09497,0.164487 0.110753,0.18423 0.189621,0.258453 0.08716,0.08098 0.271114,0.217176 0.359049,0.264522 0.06308,0.03428 0.151873,0.03063 0.222213,-0.01 0.04653,-0.02687 0.09755,-0.09095 0.365148,-0.454663 0.258819,-0.351432 0.313786,-0.433667 0.32734,-0.487663 0.03214,-0.126774 -0.01417,-0.189491 -0.278493,-0.377403 -0.216895,-0.153249 -0.256913,-0.195074 -0.280425,-0.288272 -0.03264,-0.123997 -0.03155,-0.124627 0.536766,-0.89715 0.333388,-0.452197 0.531707,-0.710985 0.562298,-0.732975 0.06317,-0.04802 0.14664,-0.0659 0.228232,-0.04953 0.05895,0.01213 0.102464,0.03751 0.275054,0.161515 0.112257,0.07947 0.22651,0.154912 0.253531,0.166726 0.0649,0.02746 0.15724,0.01744 0.217337,-0.02592 0.06117,-0.04398 0.6543,-0.851022 0.673845,-0.917135 0.02612,-0.08722 0.0064,-0.173929 -0.05311,-0.231942 z" />
  </g>
</svg>
