<?xml version="1.0" encoding="UTF-8" standalone="no"?>
<svg
   xmlns:dc="http://purl.org/dc/elements/1.1/"
   xmlns:cc="http://creativecommons.org/ns#"
   xmlns:rdf="http://www.w3.org/1999/02/22-rdf-syntax-ns#"
   xmlns:svg="http://www.w3.org/2000/svg"
   xmlns="http://www.w3.org/2000/svg"
   xmlns:sodipodi="http://sodipodi.sourceforge.net/DTD/sodipodi-0.dtd"
   xmlns:inkscape="http://www.inkscape.org/namespaces/inkscape"
   width="7.0841279mm"
   height="7.0841279mm"
   viewBox="0 0 7.0841279 7.0841279"
   version="1.1"
   id="svg8"
   inkscape:version="1.0 (4035a4fb49, 2020-05-01)"
   sodipodi:docname="kontaktlister.svg">
  <defs
     id="defs2" />
  <sodipodi:namedview
     id="base"
     pagecolor="#ffffff"
     bordercolor="#666666"
     borderopacity="1.0"
     inkscape:pageopacity="0.0"
     inkscape:pageshadow="2"
     inkscape:zoom="1.42"
     inkscape:cx="107.96481"
     inkscape:cy="-16.582477"
     inkscape:document-units="mm"
     inkscape:current-layer="layer1"
     inkscape:document-rotation="0"
     showgrid="false"
     fit-margin-top="0"
     fit-margin-left="0"
     fit-margin-right="0"
     fit-margin-bottom="0"
     inkscape:window-width="1920"
     inkscape:window-height="1017"
     inkscape:window-x="-8"
     inkscape:window-y="-8"
     inkscape:window-maximized="1" />
  <metadata
     id="metadata5">
    <rdf:RDF>
      <cc:Work
         rdf:about="">
        <dc:format>image/svg+xml</dc:format>
        <dc:type
           rdf:resource="http://purl.org/dc/dcmitype/StillImage" />
        <dc:title></dc:title>
      </cc:Work>
    </rdf:RDF>
  </metadata>
  <g
     inkscape:label="Lag 1"
     inkscape:groupmode="layer"
     id="layer1"
     transform="translate(-21.928738,-22.684689)">
    <circle
       style="fill:#37c837;fill-opacity:1;stroke:#f1f6dd;stroke-width:0;stroke-linecap:round;stroke-linejoin:round"
       id="path833"
       cx="25.470802"
       cy="26.226753"
       r="3.5420635" />
    <text
       xml:space="preserve"
       style="font-style:normal;font-variant:normal;font-weight:normal;font-stretch:normal;font-size:7.99644px;line-height:125%;font-family:Arial;-inkscape-font-specification:Arial;letter-spacing:0px;word-spacing:0px;fill:#ffeeaa;stroke:#ffeeaa;stroke-width:0.113335;stroke-linecap:butt;stroke-linejoin:miter;stroke-miterlimit:4;stroke-dasharray:none;stroke-opacity:1"
       x="23.063847"
       y="28.993521"
       id="text839"><tspan
         sodipodi:role="line"
         id="tspan837"
         x="23.063847"
         y="28.993521"
         style="font-style:normal;font-variant:normal;font-weight:normal;font-stretch:normal;font-family:Arial;-inkscape-font-specification:Arial;fill:#ffeeaa;stroke:#ffeeaa;stroke-width:0.113335;stroke-miterlimit:4;stroke-dasharray:none;stroke-opacity:1" /></text>
    <path
       d="m 24.871637,23.767191 c -0.102464,0.02999 -0.39861,0.186185 -0.491078,0.259909 -0.227419,0.181186 -0.382366,0.461088 -0.45484,0.820962 -0.02999,0.154946 -0.02999,0.549807 0,0.714749 0.111211,0.594792 0.308642,1.135852 0.641025,1.754385 0.123706,0.231169 0.298646,0.518568 0.402359,0.664767 0.196181,0.272404 0.481081,0.508571 0.748488,0.619783 0.183685,0.07622 0.263657,0.09122 0.491077,0.09247 0.189934,0 0.214925,-0.0038 0.318638,-0.03499 0.113711,-0.03499 0.323637,-0.126204 0.408607,-0.178685 0.06123,-0.03749 0.102464,-0.11621 0.102464,-0.197432 0,-0.05373 -0.02999,-0.129955 -0.211176,-0.543559 -0.174939,-0.39986 -0.218674,-0.48858 -0.258659,-0.527316 -0.09372,-0.09122 -0.171191,-0.08247 -0.466087,0.05248 -0.241165,0.111212 -0.297395,0.124957 -0.389863,0.09872 -0.123706,-0.03373 -0.123706,-0.03499 -0.508572,-0.913429 -0.22492,-0.51482 -0.349877,-0.815964 -0.353626,-0.853451 -0.01,-0.07872 0.01625,-0.159944 0.07122,-0.222421 0.03998,-0.04499 0.08372,-0.06998 0.277403,-0.157446 0.124956,-0.05748 0.247413,-0.118708 0.271155,-0.136202 0.05623,-0.04248 0.09372,-0.127455 0.08622,-0.201179 -0.0075,-0.07497 -0.409856,-0.992152 -0.45734,-1.042135 -0.06247,-0.06623 -0.147448,-0.09247 -0.22742,-0.06998 z"
       id="path841"
       style="fill:#ffffff;fill-opacity:1;stroke:none;stroke-width:0.00124956" />
  </g>
</svg>
