<?xml version="1.0" encoding="UTF-8" standalone="no"?>
<svg
   width="96"
   height="96"
   version="1.1"
   id="svg196"
   sodipodi:docname="vagtbil (1).svg"
   inkscape:version="1.1 (c68e22c387, 2021-05-23)"
   xmlns:inkscape="http://www.inkscape.org/namespaces/inkscape"
   xmlns:sodipodi="http://sodipodi.sourceforge.net/DTD/sodipodi-0.dtd"
   xmlns="http://www.w3.org/2000/svg"
   xmlns:svg="http://www.w3.org/2000/svg">
  <defs
     id="defs200" />
  <sodipodi:namedview
     id="namedview198"
     pagecolor="#ffffff"
     bordercolor="#666666"
     borderopacity="1.0"
     inkscape:pageshadow="2"
     inkscape:pageopacity="0.0"
     inkscape:pagecheckerboard="0"
     showgrid="false"
     inkscape:zoom="8.6666667"
     inkscape:cx="48"
     inkscape:cy="42.288462"
     inkscape:window-width="1920"
     inkscape:window-height="1017"
     inkscape:window-x="-8"
     inkscape:window-y="-8"
     inkscape:window-maximized="1"
     inkscape:current-layer="svg196" />
  <circle
     style="opacity:0.860976;fill:#ffffff;stroke:#b0a7a7;stroke-width:2.8;stroke-opacity:1"
     id="path4719"
     cx="48.807693"
     cy="49.961536"
     r="44.423077" />
  <path
     style="fill:#fcfcfc; stroke:none;"
     d="M45 0L45 1L51 1L45 0z"
     id="path4" />
  <path
     style="fill:#fcfcfc; stroke:none;"
     d="M38 1L39 2L38 1z"
     id="path8" />
  <path
     style="fill:#720303;stroke:none"
     d="m 9,60 h 11.884615 c 0.552123,11.745592 15.321323,12.510731 16.576923,0.115385 L 61,60 c 1.450082,14.027457 16.261964,10.544428 16.267894,0.236061 0,0 7.003414,-0.226425 9.732106,-0.236061 C 86.9855,38.0355 64.670438,18.625492 42.001638,27.411092 35.724177,30.018515 33.4131,35.2262 28.9066,38.2577 25.6497,40.4487 21.551,39.7494 18.0008,41.1481 9.75766,44.3958 9.0051,52.2996 9,60 Z"
     id="path20"
     sodipodi:nodetypes="ccccsccccc" />
  <path
     style="fill:#fcfcfc; stroke:none;"
     d="M34 39L65 38C61.8676 22.5283 38.9479 27.3151 34 39z"
     id="path34" />
  <path
     style="fill:#b0a7a7;stroke:none;stroke-width:1.05434"
     d="M 26.947257,53.344989 C 20.220232,56.492414 23.718331,68.777934 30.93689,65.60257 37.825335,62.572388 33.92648,50.079583 26.947257,53.344989 Z"
     id="path122" />
  <path
     style="fill:#b0a7a7; stroke:none;"
     d="M67.108 54.0864C60.6819 57.093 64.1315 69.0134 70.9421 65.9136C77.5051 62.9265 73.7736 50.9678 67.108 54.0864z"
     id="path130" />
</svg>
